PathFileType	4	(X/Y/Z)	Patient4_TMGait_0pt6_01_right_08.trc.trc
DataRate	CameraRate	NumFrames	NumMarkers	Units	OrigDataRate	OrigDataStartFrame	OrigNumFrames
82.352941176471	82.352941176471	4	33	mm	82.352941176471	106	       141
Frame#	Time	Sacral			L.Shoulder			Chest			R.Shoulder			Neck			R.ASIS			L.ASIS			R.Thigh.Superior			R.Thigh.Lateral			R.Thigh.Inferior			R.Patella			L.Thigh.Superior			L.Thigh.Lateral			L.Thigh.Inferior			L.Patella			L.Shank.Superior			L.Shank.Lateral			L.Shank.Inferior			R.Shank.Superior			R.Shank.Lateral			R.Shank.Inferior			R.Heel			R.Midfoot.Superior			R.Midfoot.Lateral			R.Toe			L.Heel			L.Midfoot.Lateral			L.Midfoot.Superior			L.Toe			L.Elbow			L.Wrist			R.Elbow			R.Wrist			
		X1	Y1	Z1	X2	Y2	Z2	X3	Y3	Z3	X4	Y4	Z4	X5	Y5	Z5	X6	Y6	Z6	X7	Y7	Z7	X8	Y8	Z8	X9	Y9	Z9	X10	Y10	Z10	X11	Y11	Z11	X12	Y12	Z12	X13	Y13	Z13	X14	Y14	Z14	X15	Y15	Z15	X16	Y16	Z16	X17	Y17	Z17	X18	Y18	Z18	X19	Y19	Z19	X20	Y20	Z20	X21	Y21	Z21	X22	Y22	Z22	X23	Y23	Z23	X24	Y24	Z24	X25	Y25	Z25	X26	Y26	Z26	X27	Y27	Z27	X28	Y28	Z28	X29	Y29	Z29	X30	Y30	Z30	X31	Y31	Z31	X32	Y32	Z32	X33	Y33	Z33	

106	10.395000000000	670.532512198996	1004.721189586968	448.640117688744	832.925241814618	1445.153405871183	276.959859544793	934.923225674887	1374.936054969613	437.852741961375	844.842782919285	1438.851279307993	611.305155084847	813.537147491481	1500.582246565537	431.560951114042	896.891056856152	951.997443716588	569.307978349271	890.910165471882	969.388829357313	294.086755871596	988.962417884615	788.885491867823	533.204350311872	960.373859138264	663.713190615900	604.113589980582	1047.547495206938	631.138891861452	519.657912627456	1077.776120366767	524.255876816168	540.226869349175	925.084053073399	746.771892003088	330.440457445718	827.885749655175	636.700458232066	269.841623050898	899.453707265855	553.767249212148	338.953401492854	892.230540371311	485.542235190315	351.459796822793	865.677957990991	415.085143391918	342.672802170835	774.888745409735	301.971937087061	293.427254050932	820.340046605879	191.864338719420	368.719793131603	1019.210210960443	438.697581293870	548.130276493080	913.953425014923	368.343196665431	609.141125646419	927.701030451906	259.974579217933	558.328204762412	749.701192924728	148.921969693702	529.203837758314	928.054380795149	136.697551486806	572.937021124755	821.318538886344	106.201363884236	603.198749037103	1017.567065837622	43.247651463172	598.535013365781	688.683716766465	37.337195089640	413.599162336625	760.314680648868	35.100109814559	330.350620303489	844.270733617981	96.060109006686	355.656637250195	971.909771761684	44.427725597781	322.428941581192	869.242043630139	1100.168187282837	139.652455975405	1091.301514160764	967.652046221755	165.020882007193	774.662627976035	1092.103836707011	710.321970152634	813.724111649949	832.095833364864	701.339032416406	
107	10.407142857143	669.344662015059	1004.742744121994	447.620546292341	834.026348951804	1445.295258937138	277.143821275823	934.785737568280	1374.536447809156	438.556257450250	843.780120068556	1438.482543320670	611.485649964740	813.569926173789	1500.481621739965	431.797723791489	895.381378083172	952.080587943066	569.531582582669	890.404733728059	969.062810383546	294.245369694808	987.620296039732	789.385991952282	533.457670645725	959.292478596119	664.189971019175	604.659116174012	1046.059572670819	631.710700473843	520.005902756309	1077.619106142991	526.998671461715	540.771789209756	922.333171220328	745.735077217955	330.768983486941	823.930536298922	636.623217605814	269.468791906948	894.021747632188	552.939101900848	338.832317452120	886.041156903438	484.965966286527	351.238011971441	859.457005527168	414.726029690305	342.448579527107	768.401831956507	301.865396735795	293.165977221999	813.337974530111	191.662194398581	368.602253969555	1023.565177724657	439.860781053938	548.742683936006	923.200723241852	363.400108487697	610.267884725995	943.121900401111	256.070420137228	559.068918042566	772.121442652660	134.592395514539	530.427681514577	950.996062371010	132.873630408409	573.480693334335	846.422067429944	96.270479272459	604.305690593020	1045.953436695641	45.029793054464	598.783973354276	681.383722125487	37.364897053255	413.535067233575	752.985568607256	35.069584964973	330.347007751395	836.970034092703	95.996063395904	355.662489364075	964.614073522356	44.261423829900	322.447626621633	874.108868568232	1101.487132175087	138.953687036448	1101.288547181745	978.909799480552	166.112598110201	766.442119706386	1093.764540823601	710.517152808463	795.147968209220	832.518365484954	703.645702752416	
108	10.419285714286	668.280763920308	1004.650478786795	446.688371320224	835.099583942140	1445.281205271781	277.429964279301	934.693092852006	1374.027757169515	439.323707079555	842.833585741978	1438.056063233334	611.745936964681	813.654429680664	1500.241012209392	432.141932297789	894.015629902518	951.971885302406	569.836977113296	889.895820259273	968.616995326203	294.491469865240	985.968008559229	789.204659422610	533.886838723268	957.383655770619	664.096446021610	605.376237183356	1043.757519647631	631.491173584140	520.649706738605	1076.482955266785	529.160351546158	541.472721844804	919.691203257004	744.660876221079	331.025649227248	820.013890943556	636.522010415315	269.119320360384	888.674738062433	552.101858465910	338.661984854219	879.973423152719	484.385248022662	350.961451566050	853.311775937013	414.360307124976	342.203300828690	761.955913069959	301.769075184658	292.898388068388	806.368799451377	191.453471607426	368.462909606465	1027.181485059916	440.744236898159	549.489083919883	932.353456851196	358.309584515255	611.643888572860	958.507125954864	252.474692726637	559.938452181150	795.406931177597	120.782549259111	531.886376140408	974.190740850060	129.713101317594	574.023248345355	872.247166565099	87.051351822676	605.526888793352	1074.344529950437	47.877363990687	598.867077710136	674.088175631763	37.407361468743	413.463348907334	745.658286663544	35.040672513833	330.339811454951	829.673481349939	95.927784769768	355.659799373614	957.318573049474	44.076601480692	322.463492004521	878.800619612533	1102.628912989290	138.485480522368	1110.448092716100	989.791156561884	167.382265437670	758.209937530696	1095.641237687040	710.906464809380	777.798410195306	833.779209461266	705.900616372330	
109	10.431428571429	667.371345424723	1004.438920340138	445.864938121348	836.123720426141	1445.109527738688	277.812784452800	934.636790569386	1373.424652404477	440.149388911843	841.997978805685	1437.582579352431	612.084287414163	813.773528729709	1499.865622899896	432.578051756562	892.809929751166	951.675298422177	570.234635470731	889.420365211171	968.066349795229	294.828458807710	984.018351115206	788.341516684626	534.508884535002	954.668939815744	663.441029449099	606.271252315722	1040.690027230708	630.502747199514	521.597173778940	1074.411502775753	530.730904482627	542.299582693094	917.153400129081	743.550487889862	331.218112424478	816.129011430995	636.403752043981	268.805615495905	883.414223746576	551.258397852318	338.448477725796	874.022301167004	483.798102912527	350.638638349522	847.233017848054	413.995723303504	341.941079183015	755.539157373667	301.691977278730	292.632367183325	799.429329616189	191.246562221967	368.302728665610	1030.041430110115	441.385718060616	550.350042759521	941.323686429201	353.219784032575	613.220977752679	973.682259076363	249.336832030562	560.892921880246	819.284734224448	107.807752488695	533.511422595807	997.380594161140	127.366657983992	574.515830098287	898.490788719329	78.771208345757	606.775923740610	1102.395006862934	51.844502745355	598.702277617120	666.791313950647	37.466272334392	413.389643805560	738.331231433960	35.015434690592	330.328564863310	822.380272640814	95.856725181109	355.645593968217	950.020601993733	43.875900959207	322.475641985291	883.327318554078	1103.581286093497	138.242864367643	1118.799614318027	1000.163896901566	168.818474151485	750.076070466652	1097.719746446762	711.472186891506	761.696153997548	835.674085381251	708.075970521489	
